<svg width="19" height="14" viewBox="0 0 19 14" fill="none" xmlns="http://www.w3.org/2000/svg">
<path d="M12.112 14H10.8L9.568 7.584L6.512 13.824H6.208L3.168 7.584L1.936 14H0.624L2.272 5.36H3.408L6.368 11.408L9.312 5.36H10.448L12.112 14ZM18.2224 7.344H13.1664V6.032L14.9104 4.32C15.2304 4.01067 15.481 3.75467 15.6624 3.552C15.8437 3.33867 15.9717 3.14667 16.0464 2.976C16.121 2.80533 16.1584 2.62933 16.1584 2.448C16.1584 2.256 16.0944 2.10667 15.9664 2C15.849 1.89333 15.6837 1.84 15.4704 1.84C15.2677 1.84 15.049 1.89333 14.8144 2C14.5904 2.10667 14.3397 2.28267 14.0624 2.528L13.1024 1.344C13.4437 1.04533 13.8224 0.805333 14.2384 0.624C14.665 0.432 15.161 0.335999 15.7264 0.335999C16.4197 0.335999 16.9744 0.506666 17.3904 0.848C17.817 1.17867 18.0304 1.65867 18.0304 2.288C18.0304 2.608 17.9717 2.90667 17.8544 3.184C17.737 3.45067 17.5504 3.73333 17.2944 4.032C17.0384 4.32 16.7024 4.656 16.2864 5.04L15.4704 5.776H18.2224V7.344Z" fill="#282828"/>
</svg>
